# xmcd
#
# Track frame offsets:
#	150
#	19354
#	40305
#	57741
#	77083
#	96422
#	111045
#	127090
#	140779
#	160818
#	179124
#	195113
#	212658
#	230322
#	247406
#	264458
#	278860
#	291042
#	316046
#
# Disc length: 4442 seconds
#
# Revision: 3
# Processed by: cddbd v1.5.2PL0 Copyright (c) Steve Scherf et al.
# Submitted via: EasyCDDAExtractor 16.1.0.1
#
DISCID=24115813
DTITLE=Разные Исполнители - Russian Collection Vol.18
DYEAR=1999
DGENRE=Pop
TTITLE0=Дискотека Авария - Труба Зовёт
TTITLE1=Руки Вверх - Ну Где Же Вы, Девчонки
TTITLE2=Иванушки International - Небо
TTITLE3=Демо - Солнышко
TTITLE4=Михей И Джуманджи - Мама
TTITLE5=Жанна Агузарова - Индустрия (Remix)
TTITLE6=Стрелки - Розы и Шипы
TTITLE7=Лариса Черникова - Я Шура, Ребёнок Нежный
TTITLE8=Никита - Улетай Навсегда
TTITLE9=Адреналин - Солнечный Зайчик
TTITLE10=Карамель - Нам... Тарарам
TTITLE11=Русский Размер - Ангел Дня
TTITLE12=Борис Моисеев - Чёрный Бархат
TTITLE13=Хамелеон - Девчонка
TTITLE14=Коктейль - Девочка Лето
TTITLE15=Яна - Розы
TTITLE16=Земфира - Ариведерчи
TTITLE17=Ляпис Трубецкой - Яблони
TTITLE18=Мумий Тролль - Сайонара Диска
EXTD=
EXTT0=
EXTT1=
EXTT2=
EXTT3=
EXTT4=
EXTT5=
EXTT6=
EXTT7=
EXTT8=
EXTT9=
EXTT10=
EXTT11=
EXTT12=
EXTT13=
EXTT14=
EXTT15=
EXTT16=
EXTT17=
EXTT18=
PLAYORDER=
